# xmcd
#
# Track frame offsets: 
#        150
#        21049
#        38221
#        55919
#        63101
#        80813
#        100828
#        126568
#        150392
#        171420
#        188305
#        203315
#        215879
#        267125
#        287582
#        313488
#
# Disc length: 4541 seconds
#
# Revision: 10
# Processed by: cddbd v1.5.2PL0 Copyright (c) Steve Scherf et al.
# Submitted via: ExactAudioCopyFreeDBPlugin 1.0
#
DISCID=e111bb10
DTITLE=verschiedene Künstler - chillout moods - CD2
DYEAR=2001
DGENRE=New Age
TTITLE0=Douglas Spotted Eagle - Fire Dance
TTITLE1=Miles Inc. - Children
TTITLE2=Dune - Who Wants To Live Forever
TTITLE3=Roxy Music - Tara
TTITLE4=Tangerine Dream - Love On A Real Train
TTITLE5=Sacred Spirit - Yeha Noha (Wishes Of Happiness and Prosperity)
TTITLE6=Chris Hinze - Mantras and Names (Remix 2)
TTITLE7=Colin Towns - Full Circle (Main Theme)
TTITLE8=Mike Oldfield - Incantations (Part 4 - Excerpt)
TTITLE9=Vision II - The Ocean
TTITLE10=Hans Zimmer - Courting Song - Love In The Himalaya
TTITLE11=Matt Molloy - Chinese Lake Reflections
TTITLE12=Klaus Schultze - Floating
TTITLE13=Assorted Artists - Chinese Canon
TTITLE14=Clear Project Studio - Alegría
TTITLE15=The Future Sound of London - Cascade
EXTD=Disky  BX 645872\nCD 2 from 8 CD Box  DB 647752\nDisky Communicat
EXTD=ions Europe B.V. YEAR: 2001
EXTT0=
EXTT1=
EXTT2=
EXTT3=
EXTT4=
EXTT5=
EXTT6=
EXTT7=
EXTT8=
EXTT9=
EXTT10=
EXTT11=
EXTT12=
EXTT13=
EXTT14=
EXTT15=
PLAYORDER=
